<svg width="948" height="465" viewBox="0 0 948 465" fill="none" xmlns="http://www.w3.org/2000/svg">
<path d="M942.663 2.66862C942.663 4.14242 943.857 5.33716 945.331 5.33716C946.805 5.33716 948 4.14242 948 2.66862C948 1.19483 946.805 8.13579e-05 945.331 8.13579e-05C943.857 8.13579e-05 942.663 1.19483 942.663 2.66862ZM188.8 2.66862V2.16827H187.592L188.446 3.02242L188.8 2.66862ZM648.122 461.991V462.492H649.33L648.476 461.638L648.122 461.991ZM0.00032567 461.991C0.00032567 463.465 1.19507 464.66 2.66887 464.66C4.14266 464.66 5.33741 463.465 5.33741 461.991C5.33741 460.518 4.14266 459.323 2.66887 459.323C1.19507 459.323 0.00032567 460.518 0.00032567 461.991ZM945.331 2.66862V2.16827H188.8V2.66862V3.16897H945.331V2.66862ZM188.8 2.66862L188.446 3.02242L647.769 462.345L648.122 461.991L648.476 461.638L189.153 2.31482L188.8 2.66862ZM648.122 461.991V461.491L2.66887 461.491L2.66887 461.991L2.66887 462.492L648.122 462.492V461.991Z" fill="white"/>
</svg>
