<svg width="27" height="21" viewBox="0 0 27 21" fill="none" xmlns="http://www.w3.org/2000/svg">
<path d="M25.7727 0H0.954545C0.426562 0 0 0.426562 0 0.954545V20.0455C0 20.5734 0.426562 21 0.954545 21H25.7727C26.3007 21 26.7273 20.5734 26.7273 20.0455V0.954545C26.7273 0.426562 26.3007 0 25.7727 0ZM24.5795 3.30511V18.8523H2.14773V3.30511L1.32443 2.66378L2.49673 1.15739L3.77344 2.15071H22.9568L24.2335 1.15739L25.4058 2.66378L24.5795 3.30511ZM22.9568 2.14773L13.3636 9.60511L3.77045 2.14773L2.49375 1.1544L1.32145 2.6608L2.14474 3.30213L12.3345 11.2249C12.6276 11.4525 12.9881 11.5761 13.3592 11.5761C13.7302 11.5761 14.0908 11.4525 14.3838 11.2249L24.5795 3.30511L25.4028 2.66378L24.2305 1.15739L22.9568 2.14773Z" fill="white"/>
</svg>
