<svg width="27" height="28" viewBox="0 0 27 28" fill="none" xmlns="http://www.w3.org/2000/svg">
<path d="M11.6933 6.30109L7.46475 1.42002C6.97726 0.857538 6.08355 0.860038 5.51732 1.42752L2.03994 4.91114C1.00498 5.94735 0.708741 7.48605 1.30747 8.71975C4.88436 16.1257 10.8572 22.1069 18.2581 25.6941C19.4906 26.2929 21.028 25.9966 22.063 24.9604L25.5728 21.4443C26.1416 20.8756 26.1428 19.9768 25.5753 19.4894L20.6755 15.2833C20.163 14.8433 19.3668 14.9008 18.8531 15.4158L17.1481 17.1232C17.0609 17.2147 16.946 17.275 16.8211 17.2949C16.6962 17.3147 16.5683 17.2931 16.4569 17.2332C13.6701 15.6284 11.3583 13.3136 9.75716 10.5247C9.6972 10.4131 9.67549 10.285 9.69536 10.1599C9.71523 10.0348 9.77558 9.9197 9.86716 9.83221L11.5671 8.13103C12.0821 7.61354 12.1383 6.81357 11.6933 6.29984V6.30109Z" stroke="white" stroke-width="2" stroke-linecap="round" stroke-linejoin="round"/>
</svg>
