<svg viewBox="0 0 24 24" fill="none" xmlns="http://www.w3.org/2000/svg">
<path d="M12 12C13.6569 12 15 10.6569 15 9C15 7.34315 13.6569 6 12 6C10.3431 6 9 7.34315 9 9C9 10.6569 10.3431 12 12 12Z" fill="#A259FF"/>
<path d="M6 21C7.65685 21 9 19.6569 9 18V15H6C4.34315 15 3 16.3431 3 18C3 19.6569 4.34315 21 6 21Z" fill="#0ACF83"/>
<path d="M9 9V6H12C13.6569 6 15 4.65685 15 3C15 1.34315 13.6569 0 12 0H6C4.34315 0 3 1.34315 3 3C3 4.65685 4.34315 6 6 6H9V9Z" fill="#FF7262"/>
<path d="M9 15V12H6C4.34315 12 3 13.3431 3 15C3 16.6569 4.34315 18 6 18H9V15Z" fill="#1ABCFE"/>
<path d="M9 9V6H6C4.34315 6 3 7.34315 3 9C3 10.6569 4.34315 12 6 12H9V9Z" fill="#F24E1E"/>
</svg>